<svg xmlns="http://www.w3.org/2000/svg" version="1.1" xmlns:xlink="http://www.w3.org/1999/xlink" xmlns:svgjs="http://svgjs.com/svgjs" width="1440" height="1440" preserveAspectRatio="none" viewBox="0 0 1440 1440">
    <g mask="url(&quot;#SvgjsMask1163&quot;)" fill="none">
        <rect width="1440" height="1440" x="0" y="0" fill="rgba(35, 35, 35, 1)"></rect>
        <path d="M53.65 1123.31L221.66 1220.31L221.66 1414.31L53.65 1511.31L-114.36 1414.31L-114.36 1220.31zM221.66 1414.31L389.68 1511.31L389.68 1705.31L221.66 1802.31L53.65 1705.31L53.65 1511.31zM389.68 541.31L557.69 638.31L557.69 832.31L389.68 929.31L221.66 832.31L221.66 638.31zM557.69 832.31L725.7 929.31L725.7 1123.31L557.69 1220.31L389.68 1123.31L389.68 929.31zM389.68 1123.31L557.69 1220.31L557.69 1414.31L389.68 1511.31L221.66 1414.31L221.66 1220.31zM725.7 -40.69L893.72 56.31L893.72 250.31L725.7 347.31L557.69 250.31L557.69 56.31zM893.72 250.31L1061.73 347.31L1061.73 541.31L893.72 638.31L725.7 541.31L725.7 347.31zM725.7 541.31L893.72 638.31L893.72 832.31L725.7 929.31L557.69 832.31L557.69 638.31zM893.72 1414.31L1061.73 1511.31L1061.73 1705.31L893.72 1802.31L725.7 1705.31L725.7 1511.31zM1229.75 832.31L1397.76 929.31L1397.76 1123.31L1229.75 1220.31L1061.73 1123.31L1061.73 929.31zM1397.76 541.31L1565.77 638.31L1565.77 832.31L1397.76 929.31L1229.75 832.31L1229.75 638.31zM1565.77 832.31L1733.79 929.31L1733.79 1123.31L1565.77 1220.31L1397.76 1123.31L1397.76 929.31z" stroke="rgba(94, 20, 27, 1)" stroke-width="2"></path>
        <path d="M34.25 1123.31 a19.4 19.4 0 1 0 38.8 0 a19.4 19.4 0 1 0 -38.8 0zM202.26 1220.31 a19.4 19.4 0 1 0 38.8 0 a19.4 19.4 0 1 0 -38.8 0zM202.26 1414.31 a19.4 19.4 0 1 0 38.8 0 a19.4 19.4 0 1 0 -38.8 0zM34.25 1511.31 a19.4 19.4 0 1 0 38.8 0 a19.4 19.4 0 1 0 -38.8 0zM-133.76 1414.31 a19.4 19.4 0 1 0 38.8 0 a19.4 19.4 0 1 0 -38.8 0zM-133.76 1220.31 a19.4 19.4 0 1 0 38.8 0 a19.4 19.4 0 1 0 -38.8 0zM370.28 1511.31 a19.4 19.4 0 1 0 38.8 0 a19.4 19.4 0 1 0 -38.8 0zM370.28 1705.31 a19.4 19.4 0 1 0 38.8 0 a19.4 19.4 0 1 0 -38.8 0zM202.26 1802.31 a19.4 19.4 0 1 0 38.8 0 a19.4 19.4 0 1 0 -38.8 0zM34.25 1705.31 a19.4 19.4 0 1 0 38.8 0 a19.4 19.4 0 1 0 -38.8 0zM370.28 541.31 a19.4 19.4 0 1 0 38.8 0 a19.4 19.4 0 1 0 -38.8 0zM538.29 638.31 a19.4 19.4 0 1 0 38.8 0 a19.4 19.4 0 1 0 -38.8 0zM538.29 832.31 a19.4 19.4 0 1 0 38.8 0 a19.4 19.4 0 1 0 -38.8 0zM370.28 929.31 a19.4 19.4 0 1 0 38.8 0 a19.4 19.4 0 1 0 -38.8 0zM202.26 832.31 a19.4 19.4 0 1 0 38.8 0 a19.4 19.4 0 1 0 -38.8 0zM202.26 638.31 a19.4 19.4 0 1 0 38.8 0 a19.4 19.4 0 1 0 -38.8 0zM706.3 929.31 a19.4 19.4 0 1 0 38.8 0 a19.4 19.4 0 1 0 -38.8 0zM706.3 1123.31 a19.4 19.4 0 1 0 38.8 0 a19.4 19.4 0 1 0 -38.8 0zM538.29 1220.31 a19.4 19.4 0 1 0 38.8 0 a19.4 19.4 0 1 0 -38.8 0zM370.28 1123.31 a19.4 19.4 0 1 0 38.8 0 a19.4 19.4 0 1 0 -38.8 0zM538.29 1414.31 a19.4 19.4 0 1 0 38.8 0 a19.4 19.4 0 1 0 -38.8 0zM706.3 -40.69 a19.4 19.4 0 1 0 38.8 0 a19.4 19.4 0 1 0 -38.8 0zM874.32 56.31 a19.4 19.4 0 1 0 38.8 0 a19.4 19.4 0 1 0 -38.8 0zM874.32 250.31 a19.4 19.4 0 1 0 38.8 0 a19.4 19.4 0 1 0 -38.8 0zM706.3 347.31 a19.4 19.4 0 1 0 38.8 0 a19.4 19.4 0 1 0 -38.8 0zM538.29 250.31 a19.4 19.4 0 1 0 38.8 0 a19.4 19.4 0 1 0 -38.8 0zM538.29 56.31 a19.4 19.4 0 1 0 38.8 0 a19.4 19.4 0 1 0 -38.8 0zM1042.33 347.31 a19.4 19.4 0 1 0 38.8 0 a19.4 19.4 0 1 0 -38.8 0zM1042.33 541.31 a19.4 19.4 0 1 0 38.8 0 a19.4 19.4 0 1 0 -38.8 0zM874.32 638.31 a19.4 19.4 0 1 0 38.8 0 a19.4 19.4 0 1 0 -38.8 0zM706.3 541.31 a19.4 19.4 0 1 0 38.8 0 a19.4 19.4 0 1 0 -38.8 0zM874.32 832.31 a19.4 19.4 0 1 0 38.8 0 a19.4 19.4 0 1 0 -38.8 0zM874.32 1414.31 a19.4 19.4 0 1 0 38.8 0 a19.4 19.4 0 1 0 -38.8 0zM1042.33 1511.31 a19.4 19.4 0 1 0 38.8 0 a19.4 19.4 0 1 0 -38.8 0zM1042.33 1705.31 a19.4 19.4 0 1 0 38.8 0 a19.4 19.4 0 1 0 -38.8 0zM874.32 1802.31 a19.4 19.4 0 1 0 38.8 0 a19.4 19.4 0 1 0 -38.8 0zM706.3 1705.31 a19.4 19.4 0 1 0 38.8 0 a19.4 19.4 0 1 0 -38.8 0zM706.3 1511.31 a19.4 19.4 0 1 0 38.8 0 a19.4 19.4 0 1 0 -38.8 0zM1210.35 832.31 a19.4 19.4 0 1 0 38.8 0 a19.4 19.4 0 1 0 -38.8 0zM1378.36 929.31 a19.4 19.4 0 1 0 38.8 0 a19.4 19.4 0 1 0 -38.8 0zM1378.36 1123.31 a19.4 19.4 0 1 0 38.8 0 a19.4 19.4 0 1 0 -38.8 0zM1210.35 1220.31 a19.4 19.4 0 1 0 38.8 0 a19.4 19.4 0 1 0 -38.8 0zM1042.33 1123.31 a19.4 19.4 0 1 0 38.8 0 a19.4 19.4 0 1 0 -38.8 0zM1042.33 929.31 a19.4 19.4 0 1 0 38.8 0 a19.4 19.4 0 1 0 -38.8 0zM1378.36 541.31 a19.4 19.4 0 1 0 38.8 0 a19.4 19.4 0 1 0 -38.8 0zM1546.37 638.31 a19.4 19.4 0 1 0 38.8 0 a19.4 19.4 0 1 0 -38.8 0zM1546.37 832.31 a19.4 19.4 0 1 0 38.8 0 a19.4 19.4 0 1 0 -38.8 0zM1210.35 638.31 a19.4 19.4 0 1 0 38.8 0 a19.4 19.4 0 1 0 -38.8 0zM1714.39 929.31 a19.4 19.4 0 1 0 38.8 0 a19.4 19.4 0 1 0 -38.8 0zM1714.39 1123.31 a19.4 19.4 0 1 0 38.8 0 a19.4 19.4 0 1 0 -38.8 0zM1546.37 1220.31 a19.4 19.4 0 1 0 38.8 0 a19.4 19.4 0 1 0 -38.8 0z" fill="rgba(94, 20, 27, 1)"></path>
        <path d="M50.06 227.9L96.82 254.9L96.82 308.9L50.06 335.9L3.29 308.9L3.29 254.9zM3.29 308.9L50.06 335.9L50.06 389.9L3.29 416.9L-43.48 389.9L-43.48 335.9zM3.29 632.9L50.06 659.9L50.06 713.9L3.29 740.9L-43.48 713.9L-43.48 659.9zM50.06 875.9L96.82 902.9L96.82 956.9L50.06 983.9L3.29 956.9L3.29 902.9zM50.06 1037.9L96.82 1064.9L96.82 1118.9L50.06 1145.9L3.29 1118.9L3.29 1064.9zM3.29 1280.9L50.06 1307.9L50.06 1361.9L3.29 1388.9L-43.48 1361.9L-43.48 1307.9zM96.82 -15.1L143.59 11.9L143.59 65.9L96.82 92.9L50.06 65.9L50.06 11.9zM96.82 146.9L143.59 173.9L143.59 227.9L96.82 254.9L50.06 227.9L50.06 173.9zM96.82 470.9L143.59 497.9L143.59 551.9L96.82 578.9L50.06 551.9L50.06 497.9zM96.82 632.9L143.59 659.9L143.59 713.9L96.82 740.9L50.06 713.9L50.06 659.9zM143.59 713.9L190.36 740.9L190.36 794.9L143.59 821.9L96.82 794.9L96.82 740.9zM96.82 794.9L143.59 821.9L143.59 875.9L96.82 902.9L50.06 875.9L50.06 821.9zM143.59 1199.9L190.36 1226.9L190.36 1280.9L143.59 1307.9L96.82 1280.9L96.82 1226.9zM96.82 1280.9L143.59 1307.9L143.59 1361.9L96.82 1388.9L50.06 1361.9L50.06 1307.9zM143.59 1361.9L190.36 1388.9L190.36 1442.9L143.59 1469.9L96.82 1442.9L96.82 1388.9zM237.12 65.9L283.89 92.9L283.89 146.9L237.12 173.9L190.36 146.9L190.36 92.9zM190.36 146.9L237.12 173.9L237.12 227.9L190.36 254.9L143.59 227.9L143.59 173.9zM237.12 389.9L283.89 416.9L283.89 470.9L237.12 497.9L190.36 470.9L190.36 416.9zM190.36 632.9L237.12 659.9L237.12 713.9L190.36 740.9L143.59 713.9L143.59 659.9zM190.36 794.9L237.12 821.9L237.12 875.9L190.36 902.9L143.59 875.9L143.59 821.9zM237.12 875.9L283.89 902.9L283.89 956.9L237.12 983.9L190.36 956.9L190.36 902.9zM237.12 1037.9L283.89 1064.9L283.89 1118.9L237.12 1145.9L190.36 1118.9L190.36 1064.9zM190.36 1118.9L237.12 1145.9L237.12 1199.9L190.36 1226.9L143.59 1199.9L143.59 1145.9zM190.36 1442.9L237.12 1469.9L237.12 1523.9L190.36 1550.9L143.59 1523.9L143.59 1469.9zM330.66 65.9L377.42 92.9L377.42 146.9L330.66 173.9L283.89 146.9L283.89 92.9zM283.89 146.9L330.66 173.9L330.66 227.9L283.89 254.9L237.12 227.9L237.12 173.9zM283.89 308.9L330.66 335.9L330.66 389.9L283.89 416.9L237.12 389.9L237.12 335.9zM330.66 389.9L377.42 416.9L377.42 470.9L330.66 497.9L283.89 470.9L283.89 416.9zM330.66 551.9L377.42 578.9L377.42 632.9L330.66 659.9L283.89 632.9L283.89 578.9zM283.89 794.9L330.66 821.9L330.66 875.9L283.89 902.9L237.12 875.9L237.12 821.9zM424.19 65.9L470.96 92.9L470.96 146.9L424.19 173.9L377.42 146.9L377.42 92.9zM424.19 227.9L470.96 254.9L470.96 308.9L424.19 335.9L377.42 308.9L377.42 254.9zM377.42 308.9L424.19 335.9L424.19 389.9L377.42 416.9L330.66 389.9L330.66 335.9zM424.19 551.9L470.96 578.9L470.96 632.9L424.19 659.9L377.42 632.9L377.42 578.9zM377.42 794.9L424.19 821.9L424.19 875.9L377.42 902.9L330.66 875.9L330.66 821.9zM377.42 1118.9L424.19 1145.9L424.19 1199.9L377.42 1226.9L330.66 1199.9L330.66 1145.9zM424.19 1361.9L470.96 1388.9L470.96 1442.9L424.19 1469.9L377.42 1442.9L377.42 1388.9zM470.96 -15.1L517.72 11.9L517.72 65.9L470.96 92.9L424.19 65.9L424.19 11.9zM517.72 227.9L564.49 254.9L564.49 308.9L517.72 335.9L470.96 308.9L470.96 254.9zM517.72 713.9L564.49 740.9L564.49 794.9L517.72 821.9L470.96 794.9L470.96 740.9zM517.72 1037.9L564.49 1064.9L564.49 1118.9L517.72 1145.9L470.96 1118.9L470.96 1064.9zM470.96 1118.9L517.72 1145.9L517.72 1199.9L470.96 1226.9L424.19 1199.9L424.19 1145.9zM517.72 1361.9L564.49 1388.9L564.49 1442.9L517.72 1469.9L470.96 1442.9L470.96 1388.9zM470.96 1442.9L517.72 1469.9L517.72 1523.9L470.96 1550.9L424.19 1523.9L424.19 1469.9zM564.49 -15.1L611.26 11.9L611.26 65.9L564.49 92.9L517.72 65.9L517.72 11.9zM611.26 65.9L658.02 92.9L658.02 146.9L611.26 173.9L564.49 146.9L564.49 92.9zM611.26 551.9L658.02 578.9L658.02 632.9L611.26 659.9L564.49 632.9L564.49 578.9zM611.26 713.9L658.02 740.9L658.02 794.9L611.26 821.9L564.49 794.9L564.49 740.9zM611.26 1199.9L658.02 1226.9L658.02 1280.9L611.26 1307.9L564.49 1280.9L564.49 1226.9zM564.49 1280.9L611.26 1307.9L611.26 1361.9L564.49 1388.9L517.72 1361.9L517.72 1307.9zM704.79 227.9L751.56 254.9L751.56 308.9L704.79 335.9L658.02 308.9L658.02 254.9zM704.79 389.9L751.56 416.9L751.56 470.9L704.79 497.9L658.02 470.9L658.02 416.9zM704.79 551.9L751.56 578.9L751.56 632.9L704.79 659.9L658.02 632.9L658.02 578.9zM658.02 632.9L704.79 659.9L704.79 713.9L658.02 740.9L611.26 713.9L611.26 659.9zM704.79 875.9L751.56 902.9L751.56 956.9L704.79 983.9L658.02 956.9L658.02 902.9zM658.02 956.9L704.79 983.9L704.79 1037.9L658.02 1064.9L611.26 1037.9L611.26 983.9zM704.79 1037.9L751.56 1064.9L751.56 1118.9L704.79 1145.9L658.02 1118.9L658.02 1064.9zM658.02 1280.9L704.79 1307.9L704.79 1361.9L658.02 1388.9L611.26 1361.9L611.26 1307.9zM658.02 1442.9L704.79 1469.9L704.79 1523.9L658.02 1550.9L611.26 1523.9L611.26 1469.9zM751.56 -15.1L798.32 11.9L798.32 65.9L751.56 92.9L704.79 65.9L704.79 11.9zM798.32 227.9L845.09 254.9L845.09 308.9L798.32 335.9L751.56 308.9L751.56 254.9zM798.32 389.9L845.09 416.9L845.09 470.9L798.32 497.9L751.56 470.9L751.56 416.9zM751.56 470.9L798.32 497.9L798.32 551.9L751.56 578.9L704.79 551.9L704.79 497.9zM798.32 713.9L845.09 740.9L845.09 794.9L798.32 821.9L751.56 794.9L751.56 740.9zM751.56 794.9L798.32 821.9L798.32 875.9L751.56 902.9L704.79 875.9L704.79 821.9zM798.32 1037.9L845.09 1064.9L845.09 1118.9L798.32 1145.9L751.56 1118.9L751.56 1064.9zM751.56 1118.9L798.32 1145.9L798.32 1199.9L751.56 1226.9L704.79 1199.9L704.79 1145.9zM798.32 1199.9L845.09 1226.9L845.09 1280.9L798.32 1307.9L751.56 1280.9L751.56 1226.9zM798.32 1361.9L845.09 1388.9L845.09 1442.9L798.32 1469.9L751.56 1442.9L751.56 1388.9zM845.09 -15.1L891.86 11.9L891.86 65.9L845.09 92.9L798.32 65.9L798.32 11.9zM891.86 227.9L938.62 254.9L938.62 308.9L891.86 335.9L845.09 308.9L845.09 254.9zM845.09 308.9L891.86 335.9L891.86 389.9L845.09 416.9L798.32 389.9L798.32 335.9zM891.86 389.9L938.62 416.9L938.62 470.9L891.86 497.9L845.09 470.9L845.09 416.9zM891.86 713.9L938.62 740.9L938.62 794.9L891.86 821.9L845.09 794.9L845.09 740.9zM891.86 875.9L938.62 902.9L938.62 956.9L891.86 983.9L845.09 956.9L845.09 902.9zM891.86 1037.9L938.62 1064.9L938.62 1118.9L891.86 1145.9L845.09 1118.9L845.09 1064.9zM891.86 1199.9L938.62 1226.9L938.62 1280.9L891.86 1307.9L845.09 1280.9L845.09 1226.9zM891.86 1361.9L938.62 1388.9L938.62 1442.9L891.86 1469.9L845.09 1442.9L845.09 1388.9zM845.09 1442.9L891.86 1469.9L891.86 1523.9L845.09 1550.9L798.32 1523.9L798.32 1469.9zM938.62 -15.1L985.39 11.9L985.39 65.9L938.62 92.9L891.86 65.9L891.86 11.9zM938.62 146.9L985.39 173.9L985.39 227.9L938.62 254.9L891.86 227.9L891.86 173.9zM985.39 227.9L1032.16 254.9L1032.16 308.9L985.39 335.9L938.62 308.9L938.62 254.9zM985.39 389.9L1032.16 416.9L1032.16 470.9L985.39 497.9L938.62 470.9L938.62 416.9zM938.62 470.9L985.39 497.9L985.39 551.9L938.62 578.9L891.86 551.9L891.86 497.9zM985.39 551.9L1032.16 578.9L1032.16 632.9L985.39 659.9L938.62 632.9L938.62 578.9zM985.39 713.9L1032.16 740.9L1032.16 794.9L985.39 821.9L938.62 794.9L938.62 740.9zM938.62 794.9L985.39 821.9L985.39 875.9L938.62 902.9L891.86 875.9L891.86 821.9zM938.62 956.9L985.39 983.9L985.39 1037.9L938.62 1064.9L891.86 1037.9L891.86 983.9zM985.39 1199.9L1032.16 1226.9L1032.16 1280.9L985.39 1307.9L938.62 1280.9L938.62 1226.9zM938.62 1442.9L985.39 1469.9L985.39 1523.9L938.62 1550.9L891.86 1523.9L891.86 1469.9zM1032.16 308.9L1078.92 335.9L1078.92 389.9L1032.16 416.9L985.39 389.9L985.39 335.9zM1032.16 470.9L1078.92 497.9L1078.92 551.9L1032.16 578.9L985.39 551.9L985.39 497.9zM1032.16 632.9L1078.92 659.9L1078.92 713.9L1032.16 740.9L985.39 713.9L985.39 659.9zM1078.92 875.9L1125.69 902.9L1125.69 956.9L1078.92 983.9L1032.16 956.9L1032.16 902.9zM1078.92 1037.9L1125.69 1064.9L1125.69 1118.9L1078.92 1145.9L1032.16 1118.9L1032.16 1064.9zM1078.92 1199.9L1125.69 1226.9L1125.69 1280.9L1078.92 1307.9L1032.16 1280.9L1032.16 1226.9zM1032.16 1442.9L1078.92 1469.9L1078.92 1523.9L1032.16 1550.9L985.39 1523.9L985.39 1469.9zM1125.69 -15.1L1172.46 11.9L1172.46 65.9L1125.69 92.9L1078.92 65.9L1078.92 11.9zM1172.46 65.9L1219.22 92.9L1219.22 146.9L1172.46 173.9L1125.69 146.9L1125.69 92.9zM1172.46 227.9L1219.22 254.9L1219.22 308.9L1172.46 335.9L1125.69 308.9L1125.69 254.9zM1172.46 389.9L1219.22 416.9L1219.22 470.9L1172.46 497.9L1125.69 470.9L1125.69 416.9zM1125.69 1118.9L1172.46 1145.9L1172.46 1199.9L1125.69 1226.9L1078.92 1199.9L1078.92 1145.9zM1172.46 1199.9L1219.22 1226.9L1219.22 1280.9L1172.46 1307.9L1125.69 1280.9L1125.69 1226.9zM1125.69 1280.9L1172.46 1307.9L1172.46 1361.9L1125.69 1388.9L1078.92 1361.9L1078.92 1307.9zM1172.46 1361.9L1219.22 1388.9L1219.22 1442.9L1172.46 1469.9L1125.69 1442.9L1125.69 1388.9zM1125.69 1442.9L1172.46 1469.9L1172.46 1523.9L1125.69 1550.9L1078.92 1523.9L1078.92 1469.9zM1219.22 308.9L1265.99 335.9L1265.99 389.9L1219.22 416.9L1172.46 389.9L1172.46 335.9zM1219.22 470.9L1265.99 497.9L1265.99 551.9L1219.22 578.9L1172.46 551.9L1172.46 497.9zM1219.22 632.9L1265.99 659.9L1265.99 713.9L1219.22 740.9L1172.46 713.9L1172.46 659.9zM1219.22 794.9L1265.99 821.9L1265.99 875.9L1219.22 902.9L1172.46 875.9L1172.46 821.9zM1219.22 1280.9L1265.99 1307.9L1265.99 1361.9L1219.22 1388.9L1172.46 1361.9L1172.46 1307.9zM1219.22 1442.9L1265.99 1469.9L1265.99 1523.9L1219.22 1550.9L1172.46 1523.9L1172.46 1469.9zM1312.76 -15.1L1359.52 11.9L1359.52 65.9L1312.76 92.9L1265.99 65.9L1265.99 11.9zM1312.76 308.9L1359.52 335.9L1359.52 389.9L1312.76 416.9L1265.99 389.9L1265.99 335.9zM1312.76 632.9L1359.52 659.9L1359.52 713.9L1312.76 740.9L1265.99 713.9L1265.99 659.9zM1312.76 1118.9L1359.52 1145.9L1359.52 1199.9L1312.76 1226.9L1265.99 1199.9L1265.99 1145.9zM1359.52 1199.9L1406.29 1226.9L1406.29 1280.9L1359.52 1307.9L1312.76 1280.9L1312.76 1226.9zM1312.76 1280.9L1359.52 1307.9L1359.52 1361.9L1312.76 1388.9L1265.99 1361.9L1265.99 1307.9zM1359.52 1361.9L1406.29 1388.9L1406.29 1442.9L1359.52 1469.9L1312.76 1442.9L1312.76 1388.9zM1406.29 308.9L1453.06 335.9L1453.06 389.9L1406.29 416.9L1359.52 389.9L1359.52 335.9zM1406.29 470.9L1453.06 497.9L1453.06 551.9L1406.29 578.9L1359.52 551.9L1359.52 497.9zM1453.06 713.9L1499.82 740.9L1499.82 794.9L1453.06 821.9L1406.29 794.9L1406.29 740.9zM1406.29 794.9L1453.06 821.9L1453.06 875.9L1406.29 902.9L1359.52 875.9L1359.52 821.9zM1453.06 875.9L1499.82 902.9L1499.82 956.9L1453.06 983.9L1406.29 956.9L1406.29 902.9zM1406.29 956.9L1453.06 983.9L1453.06 1037.9L1406.29 1064.9L1359.52 1037.9L1359.52 983.9zM1453.06 1037.9L1499.82 1064.9L1499.82 1118.9L1453.06 1145.9L1406.29 1118.9L1406.29 1064.9zM1406.29 1118.9L1453.06 1145.9L1453.06 1199.9L1406.29 1226.9L1359.52 1199.9L1359.52 1145.9zM1406.29 1280.9L1453.06 1307.9L1453.06 1361.9L1406.29 1388.9L1359.52 1361.9L1359.52 1307.9zM1453.06 1361.9L1499.82 1388.9L1499.82 1442.9L1453.06 1469.9L1406.29 1442.9L1406.29 1388.9z" stroke="rgba(220, 53, 69, 1)" stroke-width="2"></path>
    </g>
    <defs>
        <mask id="SvgjsMask1163">
            <rect width="1440" height="1440" fill="#ffffff"></rect>
        </mask>
    </defs>
</svg>